<?xml version="1.0" standalone="no"?>
<!DOCTYPE svg PUBLIC "-//W3C//DTD SVG 20010904//EN"
 "http://www.w3.org/TR/2001/REC-SVG-20010904/DTD/svg10.dtd">
<svg version="1.0" xmlns="http://www.w3.org/2000/svg"
 width="696.000000pt" height="696.000000pt" viewBox="0 0 696.000000 696.000000"
 preserveAspectRatio="xMidYMid meet">
<metadata>
Created by potrace 1.14, written by Peter Selinger 2001-2017
</metadata>
<g transform="translate(0.000000,696.000000) scale(0.100000,-0.100000)"
fill="#000000" stroke="none">
<path d="M45 6493 c3 -37 8 -86 10 -108 2 -22 7 -80 10 -130 3 -49 8 -106 10
-125 6 -49 14 -143 20 -220 7 -103 25 -312 30 -350 2 -19 7 -73 10 -120 3 -47
8 -103 10 -125 3 -22 9 -96 15 -165 6 -69 12 -145 15 -170 2 -25 7 -79 10
-120 3 -41 8 -95 10 -120 2 -25 9 -101 15 -170 6 -69 13 -147 15 -175 3 -27 7
-79 10 -115 3 -36 8 -90 10 -120 12 -123 15 -158 20 -225 3 -38 8 -88 10 -110
2 -22 7 -76 10 -120 3 -44 8 -93 10 -110 2 -16 6 -70 10 -120 4 -49 8 -100 10
-113 2 -12 7 -64 11 -115 3 -50 10 -102 15 -114 10 -28 53 -41 816 -259 l582
-166 85 24 c49 14 91 21 98 16 10 -6 10 -8 -2 -8 -10 0 -11 -3 -3 -8 6 -4 10
-22 9 -40 -1 -18 1 -35 5 -37 3 -3 4 -16 1 -30 -2 -14 1 -31 7 -39 9 -11 9
-15 -1 -19 -10 -4 -10 -8 2 -16 13 -10 13 -11 0 -11 -9 0 -11 -3 -5 -8 6 -4
10 -23 10 -42 0 -19 4 -38 10 -42 6 -5 5 -8 -3 -8 -10 0 -10 -5 -1 -22 13 -24
13 -26 -2 -45 -7 -8 -4 -15 8 -22 14 -8 15 -10 3 -11 -13 0 -13 -2 -1 -9 10
-7 12 -13 5 -23 -14 -19 -11 -44 6 -40 11 3 11 0 0 -12 -10 -13 -10 -16 1 -16
9 0 10 -3 4 -8 -12 -8 -14 -63 -3 -56 5 3 7 -13 5 -36 -2 -23 1 -44 6 -47 5
-3 3 -9 -4 -14 -8 -5 -9 -9 -3 -9 6 0 12 -11 12 -25 0 -15 -5 -22 -11 -18 -6
3 -3 -4 6 -17 11 -16 13 -29 6 -47 -5 -14 -5 -22 0 -19 5 3 12 -1 15 -10 3 -8
2 -12 -4 -9 -12 8 -13 -5 0 -25 5 -9 5 -19 -2 -27 -6 -7 -6 -13 -1 -13 5 0 9
-9 9 -20 0 -11 -5 -20 -11 -20 -5 0 -4 -4 4 -9 8 -6 14 -25 14 -48 0 -21 5
-44 11 -52 8 -11 8 -13 -2 -7 -9 5 -12 -1 -10 -23 1 -17 7 -31 13 -31 5 0 3
-5 -5 -10 -8 -5 -10 -10 -5 -10 6 0 12 -21 13 -47 2 -27 4 -59 5 -73 2 -14 -2
-28 -8 -32 -5 -4 -1 -8 10 -8 11 0 16 -4 10 -8 -5 -4 -10 -14 -10 -22 0 -8 5
-18 10 -22 6 -5 5 -8 -3 -8 -8 0 -10 -5 -5 -12 4 -7 9 -39 10 -71 1 -32 8 -66
15 -75 8 -9 8 -13 2 -9 -7 4 -14 0 -17 -8 -4 -8 -1 -12 6 -9 8 3 12 -14 13
-58 3 -112 7 -148 18 -148 7 0 7 -3 1 -8 -15 -11 -17 -32 -2 -32 8 0 7 -4 -3
-10 -10 -6 -11 -10 -3 -10 15 0 13 -21 -2 -32 -6 -5 -5 -8 2 -8 8 0 11 -11 9
-30 -2 -17 1 -33 6 -36 5 -3 3 -13 -4 -22 -10 -12 -10 -14 0 -8 8 5 12 0 12
-14 0 -15 5 -20 15 -17 8 4 17 2 20 -4 4 -5 11 -7 16 -4 5 4 9 1 9 -5 0 -8 6
-7 21 1 15 8 19 8 15 0 -6 -10 20 -16 47 -12 4 0 7 -4 7 -9 0 -6 12 -10 26
-10 14 0 34 -5 44 -10 10 -6 30 -11 44 -12 15 -1 26 -5 26 -8 0 -3 12 -7 27
-8 15 -1 30 -8 35 -15 4 -6 8 -7 8 -2 0 6 5 3 10 -5 7 -11 10 -11 10 -2 0 10
5 10 21 2 26 -14 57 -22 91 -23 15 -1 24 -5 22 -9 -5 -8 5 -11 39 -11 9 0 17
-3 17 -7 0 -4 6 -7 13 -8 16 -1 38 -7 60 -17 9 -4 24 -5 32 -1 8 3 20 -1 27
-8 8 -7 21 -12 31 -10 10 1 17 -4 17 -14 0 -13 2 -14 9 -4 6 10 10 10 21 -3 9
-11 16 -12 25 -5 9 8 15 8 20 0 3 -6 11 -8 16 -5 5 4 9 1 9 -5 0 -6 4 -9 9 -6
4 3 16 -1 27 -8 10 -8 24 -12 31 -9 7 3 21 -1 30 -8 14 -12 16 -12 8 1 -7 12
-6 13 7 3 8 -7 18 -10 21 -6 4 3 7 0 7 -7 0 -7 3 -10 7 -7 3 4 13 1 21 -6 13
-10 14 -9 7 3 -8 13 -6 13 8 2 9 -8 21 -11 27 -7 5 3 10 1 10 -6 0 -6 8 -9 20
-6 10 3 25 -2 31 -10 7 -8 21 -12 31 -10 10 3 18 1 18 -3 0 -5 12 -7 26 -5 14
1 28 -3 30 -10 3 -7 13 -12 22 -11 9 2 27 -3 40 -10 14 -7 33 -11 43 -9 11 2
19 0 19 -4 0 -5 11 -11 25 -13 13 -3 22 -1 19 3 -3 5 -2 10 3 10 4 1 21 3 37
5 16 2 33 9 37 16 7 10 9 10 9 -2 0 -13 1 -13 10 0 5 8 10 11 10 5 0 -5 5 -3
10 5 9 13 10 13 10 0 0 -11 3 -12 8 -3 4 6 19 14 34 17 14 2 35 9 46 15 13 7
23 7 32 -2 10 -10 11 -9 5 2 -6 11 -4 13 8 8 10 -4 17 -2 17 4 0 6 7 9 15 5 8
-3 15 -2 15 2 0 4 10 8 22 9 11 1 25 8 29 15 7 10 9 10 9 -1 0 -11 3 -11 15
-1 8 7 22 10 30 6 11 -4 14 -2 9 6 -5 7 0 9 14 6 12 -4 26 0 33 8 7 8 20 12
30 9 11 -4 19 -2 19 4 0 6 3 10 8 10 4 -1 9 0 12 1 7 2 51 10 73 12 9 1 17 6
17 11 0 4 5 5 10 2 6 -3 10 0 10 7 0 9 3 9 10 -2 8 -12 10 -12 10 -1 0 8 3 11
7 8 3 -4 12 -2 20 4 7 6 13 8 13 4 0 -4 8 -1 17 6 15 12 16 12 8 -1 -8 -13 -6
-13 8 -2 9 8 21 11 27 7 5 -3 10 -1 10 5 0 6 4 8 10 5 6 -3 10 -1 10 5 0 7 7
10 15 6 8 -3 15 -1 15 4 0 12 22 9 32 -5 5 -6 8 -3 8 7 0 11 5 15 15 12 9 -4
15 -1 15 7 0 10 3 10 12 1 9 -9 15 -9 27 2 9 8 32 17 51 20 19 3 36 10 39 17
2 8 6 7 12 -2 6 -10 9 -10 9 -2 0 7 7 10 15 7 8 -4 15 -2 15 4 0 5 13 9 29 8
17 -1 28 1 25 5 -2 4 3 10 12 13 10 4 13 2 8 -7 -5 -8 -2 -7 9 2 9 7 17 11 17
7 0 -3 15 0 34 8 19 8 37 12 40 8 3 -3 6 0 6 6 0 6 25 14 55 17 37 5 55 12 55
21 0 8 6 14 13 14 8 0 7 4 -3 10 -12 8 -12 10 -1 10 10 0 11 3 2 14 -9 10 -9
16 -1 21 8 5 8 11 -1 21 -10 12 -9 13 6 8 15 -6 16 -4 6 14 -8 15 -8 22 -1 22
8 0 8 6 0 20 -7 14 -7 20 0 20 6 0 8 13 5 31 -3 18 -2 28 4 25 5 -4 7 11 4 36
-5 33 -3 40 8 33 12 -7 12 -6 0 9 -12 14 -12 19 -2 26 11 6 11 9 0 13 -10 4
-10 6 -2 6 9 1 10 8 3 25 -6 18 -5 28 6 37 10 8 11 15 4 24 -5 6 -7 14 -4 17
3 4 7 28 8 56 2 27 6 54 10 60 3 6 2 14 -4 17 -8 5 -8 11 0 20 8 10 8 15 0 20
-8 5 -8 11 1 21 6 7 9 20 6 29 -4 8 -3 16 1 19 4 2 7 25 6 50 0 27 4 46 10 46
6 0 5 4 -3 9 -9 6 -10 11 -2 15 6 4 11 12 11 17 0 6 -5 7 -12 3 -8 -5 -8 -3
-2 7 8 13 11 31 13 102 1 20 5 26 14 21 7 -5 7 -1 -2 10 -13 15 -13 19 0 27
10 6 11 9 1 9 -9 0 -10 5 -3 18 6 11 6 24 -1 36 -8 14 -7 17 1 12 8 -5 10 0 7
18 -3 15 0 26 6 26 6 0 6 6 -2 15 -7 8 -8 15 -3 15 5 0 9 21 8 48 0 26 4 53 8
60 6 8 5 12 -3 12 -9 0 -9 4 -3 13 14 17 23 58 12 51 -5 -3 -9 4 -9 15 0 12 6
21 13 21 8 0 7 4 -3 10 -8 5 -10 10 -4 10 7 0 10 18 9 45 -2 25 0 43 4 40 4
-2 8 2 8 10 0 8 -5 15 -11 15 -6 0 -5 5 2 12 16 16 15 31 0 22 -9 -6 -9 -3 1
9 8 10 14 45 15 86 1 39 4 73 8 76 3 3 4 19 2 35 -2 19 1 30 9 30 8 0 7 4 -3
10 -9 6 -11 13 -5 18 6 4 10 31 9 60 0 30 4 52 10 52 6 0 4 4 -4 10 -10 6 -5
9 18 8 22 -1 32 -6 32 -17 0 -13 2 -13 9 -2 6 9 14 10 22 5 8 -5 23 -9 34 -9
11 0 25 -4 32 -8 11 -7 33 -5 83 8 8 2 23 4 33 4 10 1 15 6 12 11 -4 7 3 9 21
6 15 -3 36 1 47 9 10 7 26 11 33 8 8 -3 21 0 29 7 9 7 29 13 45 12 17 0 30 4
30 10 0 6 9 8 20 5 11 -3 20 -1 20 5 0 5 5 6 11 2 6 -3 14 -2 18 4 3 5 26 12
50 16 25 3 47 9 50 14 3 4 16 7 29 6 12 -1 22 3 22 7 0 5 3 8 8 8 27 -5 62 3
57 11 -4 7 3 9 19 6 14 -3 28 0 32 5 3 5 10 7 15 4 5 -4 9 -2 9 4 0 5 8 8 17
7 10 -2 33 3 50 11 18 7 35 13 38 13 29 -1 35 1 31 9 -3 5 8 7 24 6 17 -1 30
1 30 5 0 3 6 7 13 8 28 1 60 12 75 24 13 11 14 11 8 0 -7 -11 -4 -12 13 -3 12
7 27 9 33 5 7 -5 8 -3 4 5 -5 8 -3 12 5 10 29 -3 60 1 55 9 -2 4 9 8 26 9 17
0 33 5 37 9 3 5 17 10 31 10 38 2 42 3 37 12 -3 4 9 7 26 7 18 -1 35 3 38 8 3
4 17 9 30 9 13 1 29 5 35 10 7 5 22 11 35 13 12 3 27 10 33 16 8 9 7 10 -3 4
-10 -6 -12 -4 -5 6 12 19 15 37 16 89 0 25 6 51 12 59 8 11 8 13 -1 8 -8 -5
-11 0 -10 13 1 11 4 20 7 20 4 0 6 23 6 50 -1 28 1 50 4 50 3 0 5 17 4 37 -1
21 3 41 9 45 9 6 8 8 -2 8 -9 0 -10 4 -4 13 6 6 11 38 11 70 0 31 1 60 2 65 1
4 2 15 1 25 -1 9 4 17 11 17 10 0 10 2 -1 9 -11 7 -12 13 -4 23 5 7 9 43 9 80
-1 54 2 68 14 68 13 0 13 2 1 9 -9 6 -11 15 -6 27 4 11 9 48 11 84 2 36 6 85
9 110 3 25 6 73 7 108 1 35 7 62 13 62 5 0 3 5 -5 10 -9 6 -11 10 -3 10 7 0
10 7 7 15 -4 9 0 15 7 15 9 0 10 3 4 8 -13 9 -18 32 -7 32 4 0 7 24 7 53 -1
28 3 62 7 75 4 13 4 21 0 18 -4 -2 -8 4 -8 14 0 10 5 16 10 13 5 -4 7 1 3 9
-3 9 -3 19 1 22 3 4 7 44 8 89 1 45 3 83 4 85 1 1 3 5 4 10 1 4 5 13 10 21 6
10 5 12 -3 7 -9 -6 -10 0 -4 21 4 15 7 47 7 71 0 23 4 42 8 42 5 0 8 5 8 11 0
5 -4 8 -9 5 -18 -12 -18 20 1 47 11 15 15 27 8 27 -6 0 -8 5 -4 12 9 14 9 70
1 111 -3 16 -2 25 4 22 5 -4 10 1 10 9 1 9 2 24 3 34 1 9 5 22 9 29 4 6 3 15
-3 18 -8 5 -8 11 0 20 8 10 8 15 -1 20 -8 6 -8 10 2 16 11 6 11 11 2 20 -13
13 -6 42 9 33 6 -4 6 0 0 13 -6 10 -7 25 -2 33 5 9 7 30 6 48 -1 17 2 32 6 32
5 0 4 9 -2 19 -5 11 -6 22 -1 25 4 3 7 19 5 36 -2 17 0 29 4 26 5 -3 9 1 9 9
0 8 -4 12 -9 9 -4 -3 -8 0 -8 5 0 6 4 11 9 11 4 0 7 10 7 23 -1 12 2 28 7 35
5 6 6 12 1 12 -5 0 -9 19 -8 43 1 23 6 41 12 40 5 -1 8 6 5 17 -3 11 -10 17
-17 14 -6 -3 -2 2 8 10 15 12 16 16 5 16 -9 0 -10 3 -3 8 6 4 11 30 10 57 -1
28 2 58 7 68 5 10 4 17 -3 17 -7 0 -8 6 -2 18 5 9 7 23 5 30 -3 6 1 12 9 12
10 0 9 3 -2 10 -8 5 -10 10 -4 10 6 0 10 15 9 36 -1 19 2 37 7 40 5 3 5 11 0
17 -10 14 -10 27 1 45 5 7 3 12 -5 12 -8 0 -9 3 -3 8 14 10 16 24 19 112 1 42
6 82 11 90 5 8 4 11 -2 7 -7 -4 -10 3 -9 17 0 13 5 22 10 19 5 -3 7 6 4 21 -3
14 -2 26 1 26 10 0 7 70 -4 71 -5 1 -772 2 -1703 3 -1347 1 -1692 -2 -1693
-11 -1 -17 -1 -57 0 -84 1 -13 5 -18 14 -13 9 6 9 4 0 -7 -16 -16 -17 -33 -2
-23 8 5 8 1 0 -14 -6 -12 -7 -23 -3 -26 4 -2 8 -37 7 -75 0 -57 3 -71 15 -71
11 0 12 -2 3 -8 -14 -9 -13 -52 2 -52 5 0 3 -5 -5 -10 -8 -5 -10 -10 -5 -10 6
0 11 -27 12 -62 1 -67 4 -86 16 -105 4 -6 3 -15 -3 -18 -8 -5 -7 -11 1 -21 9
-11 9 -14 -1 -14 -8 0 -9 -4 -3 -12 5 -7 8 -35 7 -61 -2 -32 0 -46 7 -41 7 4
7 -2 -1 -16 -8 -15 -8 -20 -1 -16 7 5 11 -3 12 -21 0 -15 2 -36 4 -45 2 -10
-1 -20 -6 -24 -5 -3 -6 -11 -2 -17 4 -6 8 -34 9 -62 2 -54 12 -113 20 -127 3
-4 0 -8 -6 -8 -6 0 -8 -5 -3 -12 10 -17 10 -39 0 -60 -6 -14 -3 -18 10 -18 15
0 16 -2 3 -10 -10 -6 -11 -10 -2 -10 6 0 12 -5 12 -11 0 -5 -5 -7 -11 -3 -8 4
-8 1 -1 -12 5 -11 8 -29 7 -41 -1 -13 3 -23 8 -23 6 0 6 -5 0 -12 -8 -11 -10
-32 -4 -40 9 -12 6 -68 -3 -68 -6 0 -5 -4 3 -9 7 -5 11 -13 7 -19 -3 -6 2 -15
11 -21 10 -6 13 -11 8 -11 -9 0 -12 -110 -5 -130 1 -3 2 -9 1 -14 -1 -4 4 -15
11 -23 9 -11 9 -16 -1 -23 -8 -4 -9 -10 -4 -13 6 -4 9 -31 9 -62 -1 -30 2 -55
6 -55 4 0 4 -10 -1 -22 -9 -26 -4 -51 10 -42 5 3 5 -6 -1 -20 -5 -14 -6 -27
-1 -30 4 -3 7 -26 6 -51 0 -25 3 -45 7 -45 5 0 5 -7 0 -16 -5 -10 -5 -28 2
-48 6 -18 11 -65 11 -104 0 -40 4 -72 9 -72 4 0 2 -8 -5 -17 -8 -9 -9 -14 -3
-10 7 4 14 -1 17 -12 3 -14 -1 -18 -17 -16 -11 0 -27 -3 -33 -8 -9 -6 -13 -5
-13 4 0 9 -3 10 -8 4 -9 -13 -52 -15 -52 -3 0 5 -5 6 -12 2 -14 -9 -103 -8
-118 1 -6 3 -10 2 -10 -4 0 -9 -37 -7 -67 4 -7 2 -13 0 -13 -6 0 -6 -7 -6 -20
1 -15 8 -20 8 -20 -2 0 -9 -3 -9 -10 2 -5 8 -10 10 -10 5 0 -7 -15 -9 -34 -7
-25 3 -34 8 -31 21 1 9 6 61 10 116 4 55 8 107 10 115 2 8 6 58 10 110 3 52 8
106 10 120 2 14 6 63 10 110 3 47 8 101 10 120 2 19 7 69 10 110 7 91 27 326
50 583 2 28 9 108 15 177 5 69 12 148 15 175 2 28 7 82 10 120 3 39 8 88 10
110 6 54 18 223 19 260 l1 30 -80 5 c-44 3 -808 7 -1698 9 l-1618 2 6 -68z"/>
<path d="M6765 4930 c-3 -5 -1 -10 4 -10 6 0 11 5 11 10 0 6 -2 10 -4 10 -3 0
-8 -4 -11 -10z"/>
</g>
</svg>
